<svg version="1.1" id="Layer_1" xmlns:x="ns_extend;" xmlns:i="ns_ai;" xmlns:graph="ns_graphs;" xmlns="http://www.w3.org/2000/svg" xmlns:xlink="http://www.w3.org/1999/xlink" x="0px" y="0px" viewBox="0 0 39.9 51" style="enable-background:new 0 0 39.9 51;" xml:space="preserve">
 <metadata>
  <sfw xmlns="ns_sfw;">
   <slices>
   </slices>
   <sliceSourceBounds bottomLeftOrigin="true" height="51" width="39.9" x="94.7" y="174">
   </sliceSourceBounds>
  </sfw>
 </metadata>
 <g>
  <path d="M20,0C9.5,0,0.8,8.8,0.8,19.4c0,10.7,8.6,19.4,19.1,19.4c10.5,0,19.1-8.7,19.1-19.4C39.1,8.8,30.5,0,20,0L20,0z M20,32.9
		c-7.4,0-13.3-6-13.3-13.4C6.7,12,12.6,6,20,6c7.4,0,13.2,6,13.2,13.4C33,26.9,27.1,32.9,20,32.9L20,32.9z M37,37.1l-17,7.5l-17-7.5
		L0,42.5L20,51l20-8.5L37,37.1z M37,37.1">
  </path>
 </g>
</svg>